<svg xmlns="http://www.w3.org/2000/svg"><symbol viewBox="0 0 155.139 155.139" id="sprite-icon-facebook"><path d="M89.584 155.14V84.377h23.742l3.562-27.585H89.584v-17.61c0-7.983 2.208-13.424 13.67-13.424l14.595-.007V1.08C115.324.752 106.66 0 96.576 0 75.52 0 61.104 12.853 61.104 36.452v20.34H37.29V84.38h23.814v70.76h28.48z"/></symbol><symbol viewBox="0 0 475.092 475.092" id="sprite-icon-google-plus"><path d="M273.372 302.498c-5.04-6.762-10.608-13.045-16.7-18.842-6.09-5.804-12.183-11.088-18.27-15.845-6.093-4.756-11.66-9.328-16.703-13.708-5.043-4.374-9.136-8.945-12.276-13.702-3.14-4.757-4.71-9.61-4.71-14.558 0-6.855 2.19-13.278 6.566-19.274 4.377-5.996 9.707-11.8 15.986-17.417 6.28-5.616 12.56-11.752 18.844-18.414 6.276-6.665 11.604-15.465 15.985-26.412 4.373-10.944 6.563-23.458 6.563-37.542 0-16.75-3.713-32.835-11.136-48.25-7.423-15.418-17.89-27.412-31.405-35.976h38.54L303.2 0H178.44c-17.698 0-35.497 1.906-53.383 5.72-26.453 5.9-48.723 19.368-66.806 40.397-18.08 21.033-27.12 44.873-27.12 71.52 0 28.17 10.137 51.583 30.405 70.233 20.27 18.65 44.585 27.978 72.945 27.978 5.71 0 12.37-.478 19.985-1.427-.38 1.522-1.043 3.568-1.997 6.137s-1.715 4.62-2.286 6.14c-.57 1.52-1.047 3.375-1.425 5.566-.382 2.19-.57 4.428-.57 6.71 0 12.563 6.085 26.744 18.27 42.54-14.465.388-28.737 1.67-42.825 3.86-14.084 2.19-28.833 5.617-44.252 10.28-15.417 4.662-29.217 11.42-41.396 20.27-12.182 8.855-21.317 19.367-27.408 31.55C3.533 361.56.01 374.405.01 386.017c0 12.75 2.857 24.314 8.565 34.69 5.708 10.37 13.035 18.842 21.982 25.406 8.945 6.57 19.273 12.083 30.978 16.562 11.704 4.47 23.315 7.66 34.83 9.562 11.515 1.903 22.887 2.854 34.118 2.854 51.007 0 90.98-12.463 119.91-37.396 26.647-23.223 39.97-50.062 39.97-80.517 0-10.855-1.57-20.984-4.712-30.41-3.14-9.43-7.23-17.513-12.278-24.27zm-110.06-103.776c-9.708 0-18.938-2.475-27.695-7.426-8.757-4.95-16.18-11.374-22.27-19.273-6.088-7.898-11.418-16.796-15.987-26.695-4.567-9.896-7.944-19.792-10.135-29.692-2.19-9.895-3.284-19.318-3.284-28.265 0-18.27 4.855-33.973 14.563-47.107 9.705-13.134 23.41-19.7 41.112-19.7 12.563 0 23.935 3.898 34.118 11.703 10.183 7.804 18.177 17.7 23.984 29.692 5.802 11.99 10.277 24.407 13.417 37.257 3.14 12.847 4.71 24.983 4.71 36.403 0 19.036-4.138 34.317-12.418 45.833-8.282 11.514-21.65 17.272-40.115 17.272zm78.94 214.4c-5.23 8.95-12.32 15.94-21.268 20.982-8.946 5.048-18.51 8.758-28.693 11.14-10.182 2.385-20.888 3.572-32.12 3.572-12.18 0-24.27-1.43-36.257-4.284-11.99-2.85-23.46-7.187-34.403-12.99-10.944-5.8-19.795-13.8-26.55-23.983-6.758-10.185-10.136-21.745-10.136-34.69 0-11.42 2.568-21.602 7.708-30.55 5.142-8.946 11.71-16.085 19.702-21.41 7.994-5.33 17.32-9.712 27.98-13.13 10.66-3.433 20.936-5.808 30.832-7.14 9.895-1.334 19.985-1.994 30.262-1.994 6.283 0 11.043.19 14.277.567 1.143.767 4.043 2.76 8.708 5.996s7.804 5.427 9.423 6.57c1.615 1.136 4.567 3.325 8.85 6.562 4.28 3.237 7.327 5.66 9.135 7.28 1.804 1.617 4.422 4.044 7.85 7.278 3.424 3.237 5.948 6.043 7.566 8.422 1.615 2.378 3.616 5.28 5.996 8.702 2.38 3.433 4.043 6.715 4.998 9.855.948 3.14 1.854 6.566 2.707 10.276.855 3.72 1.283 7.57 1.283 11.57.005 11.987-2.613 22.456-7.85 31.397zM401.998 73.09V0h-36.55v73.09h-73.09v36.546h73.09v73.09H402v-73.09h73.083V73.09z"/></symbol><symbol viewBox="0 0 169.063 169.063" id="sprite-icon-instagram"><path d="M122.406 0H46.654C20.93 0 0 20.93 0 46.655v75.752c0 25.726 20.93 46.655 46.654 46.655h75.752c25.727 0 46.656-20.93 46.656-46.655V46.655C169.062 20.93 148.132 0 122.406 0zm31.657 122.407c0 17.455-14.2 31.655-31.656 31.655H46.654C29.2 154.062 15 139.862 15 122.407V46.655C15 29.2 29.2 15 46.654 15h75.752c17.455 0 31.656 14.2 31.656 31.655v75.752zM84.53 40.97c-24.02 0-43.562 19.542-43.562 43.563 0 24.02 19.542 43.56 43.563 43.56s43.564-19.54 43.564-43.56c0-24.02-19.542-43.563-43.563-43.563zm0 72.123c-15.748 0-28.562-12.812-28.562-28.56 0-15.75 12.813-28.564 28.563-28.564s28.564 12.812 28.564 28.562c0 15.75-12.814 28.56-28.563 28.56zM129.92 28.25c-2.89 0-5.728 1.17-7.77 3.22-2.05 2.04-3.23 4.88-3.23 7.78 0 2.892 1.18 5.73 3.23 7.78 2.04 2.04 4.88 3.22 7.77 3.22 2.9 0 5.73-1.18 7.78-3.22 2.05-2.05 3.22-4.89 3.22-7.78 0-2.9-1.17-5.74-3.22-7.78-2.04-2.05-4.88-3.22-7.78-3.22z"/></symbol><symbol viewBox="0 0 430.117 430.117" id="sprite-icon-linkedin"><path d="M430.117 261.543V420.56H337.93V272.193c0-37.27-13.335-62.707-46.704-62.707-25.473 0-40.632 17.142-47.3 33.724-2.433 5.928-3.06 14.18-3.06 22.477V420.56H148.65s1.242-251.285 0-277.32h92.21v39.31c-.187.293-.43.61-.606.895h.606v-.896c12.25-18.87 34.13-45.825 83.102-45.825 60.673 0 106.157 39.636 106.157 124.818zM52.183 9.558C20.635 9.558 0 30.25 0 57.463c0 26.62 20.038 47.94 50.96 47.94h.615c32.16 0 52.16-21.317 52.16-47.94-.607-27.212-20-47.905-51.552-47.905zM5.477 420.56H97.66V143.24H5.478v277.32z"/></symbol><symbol viewBox="0 0 5288 2311" id="logo"><g stroke="#fff" stroke-width="37.51" stroke-linejoin="round" fill="none"><path d="M3957 19l656 1136 656 1137H2644l656-1137zM1331 2292L675 1155 19 19h2625l-656 1136zM1331 19l1313 2273M3957 2292L2644 19"/></g></symbol></svg>